# xmcd
#
# Track frame offsets: 
#        150
#        12762
#        26334
#        40476
#        56658
#        70043
#        86057
#        101739
#        115098
#        129146
#        145814
#        161184
#        177467
#        192158
#        205965
#        219882
#        233969
#        250155
#        266100
#        277652
#
# Disc length: 3936 seconds
#
# Revision: 0
# Processed by: cddbd v1.5.2PL0 Copyright (c) Steve Scherf et al.
# Submitted via: ExactAudioCopy v1.0b3
#
DISCID=190f5e14
DTITLE=Various Artist - German Disco Charts Vol. 1 - CD 1
DYEAR=1900
DGENRE=
TTITLE0=Michael Mind Feat. Manfred Mann's Earth Band - Blinded By The 
TTITLE0=Light (Radio Cut)
TTITLE1=Alex Gaudino Feat. Crystal Waters - Destination Calabria (Radi
TTITLE1=o Edit)
TTITLE2=Backside Artists Vs. Geen Plank - Sonic Empire 2007
TTITLE3=Master Blaster - Can Delight
TTITLE4=Dan Winter Vs. Mayth - Dare Me (Mayth Radio Edit)
TTITLE5=David Kane - Club Sound (Pakito Radio Mix)
TTITLE6=Brisby and Jingles - Heaven
TTITLE7=Dada Feat. Sandy Rivera and Trix - Lollipop (Radio Edit)
TTITLE8=Plastik Funk - Let Me See Your Hands
TTITLE9=DJ Antoine - This Time (Radio Mix)
TTITLE10=September - Looking For Love (Radio Version)
TTITLE11=Comiccon - Komodo (Dream Dance Alliance Radio Mix)
TTITLE12=Italobrothers - Counting Down The Days (Cascada Radio Edit)
TTITLE13=Ultra Flirt - Heaven Is A Place On Earth
TTITLE14=STFU - Shut The Fuck Up (Jens O. Radio Mix)
TTITLE15=Sample Rippers - Nobody Likes The Records That I Play (Single
TTITLE15=Edit)
TTITLE16=DJ Analyzer and D-JMC - We Belong (Basslovers United Radio Mix)
TTITLE17=Alex M. Vs. Marc Van Damme - Rock The House (Bangbros Radio M
TTITLE17=ix)
TTITLE18=Tom Mountain - Happy Together (Picco Vs. Jens O. Jumper Remix
TTITLE18=Edit)
TTITLE19=Bangbros - Bang Baby Bang
EXTD=
EXTT0=
EXTT1=
EXTT2=
EXTT3=
EXTT4=
EXTT5=
EXTT6=
EXTT7=
EXTT8=
EXTT9=
EXTT10=
EXTT11=
EXTT12=
EXTT13=
EXTT14=
EXTT15=
EXTT16=
EXTT17=
EXTT18=
EXTT19=
PLAYORDER=
